<svg version="1.1" id="Ebene_1" xmlns="http://www.w3.org/2000/svg" xmlns:xlink="http://www.w3.org/1999/xlink" x="0px" y="0px"
	 viewBox="0 0 152 50.2" style="enable-background:new 0 0 152 50.2;" xml:space="preserve">
<style type="text/css">
	.st0{fill:#FFFFFF;}
</style>
<path class="st0" d="M114.9,38h2.1V3.7h-2.1V38z M87.1,24.2l7.5-18l7.5,18H87.1z M107.9,38h2.2L95.6,3.7h-2.1L79.1,38h2.2l4.9-11.7
	h16.8L107.9,38z M74.5,12.5H53.4v2.1h18.3L53.4,36.3V38h21.2v-2.1H56.2l18.3-21.7V12.5z M44.1,38h2.1V12.5h-2.1V38z M45.2,4.5
	c0.8,0,1.5-0.7,1.5-1.5S46,1.5,45.2,1.5S43.7,2.2,43.7,3S44.4,4.5,45.2,4.5L45.2,4.5 M36.2,12.5l-8,22.5l-8-22.5h-2l-8,22.5l-8-22.5
	H0L9.1,38h2.1l8-22.6L27.1,38h2.1l9.1-25.5L36.2,12.5z"/>
<polygon class="st0" points="145.8,12.3 150.3,0 138.2,0 124.3,38.2 130.6,38.2 139.9,12.3 "/>
<polygon class="st0" points="145.8,12.3 136.4,38.2 130.6,38.2 126.2,50.2 138.3,50.2 152,12.3 "/>
</svg>
